<svg xmlns="http://www.w3.org/2000/svg" version="1.1" xmlns:xlink="http://www.w3.org/1999/xlink" xmlns:svgjs="http://svgjs.dev/svgjs" width="1440" height="560" preserveAspectRatio="none" viewBox="0 0 1440 560"><g mask="url(&quot;#SvgjsMask1052&quot;)" fill="none"><rect width="1440" height="560" x="0" y="0" fill="url(&quot;#SvgjsLinearGradient1053&quot;)"></rect><path d="M0 0L289.48 0L0 45.56z" fill="rgba(255, 255, 255, .1)"></path><path d="M0 45.56L289.48 0L734.24 0L0 154.53z" fill="rgba(255, 255, 255, .075)"></path><path d="M0 154.53L734.24 0L787.86 0L0 182.59z" fill="rgba(255, 255, 255, .05)"></path><path d="M0 182.59L787.86 0L1201.67 0L0 383.69z" fill="rgba(255, 255, 255, .025)"></path><path d="M1440 560L1368.51 560L1440 506.33z" fill="rgba(0, 0, 0, .1)"></path><path d="M1440 506.33L1368.51 560L1163.98 560L1440 481.82z" fill="rgba(0, 0, 0, .075)"></path><path d="M1440 481.82L1163.98 560L913.97 560L1440 182.67000000000002z" fill="rgba(0, 0, 0, .05)"></path><path d="M1440 182.67000000000002L913.97 560L588.19 560L1440 143.48000000000002z" fill="rgba(0, 0, 0, .025)"></path></g><defs><mask id="SvgjsMask1052"><rect width="1440" height="560" fill="#ffffff"></rect></mask><linearGradient x1="50%" y1="100%" x2="50%" y2="0%" gradientUnits="userSpaceOnUse" id="SvgjsLinearGradient1053"><stop stop-color="#0e2a47" offset="0"></stop><stop stop-color="rgba(158, 158, 158, 1)" offset="1"></stop></linearGradient></defs></svg>